<?xml version="1.0" encoding="iso-8859-1"?>
<!-- Generator: Adobe Illustrator 19.0.0, SVG Export Plug-In . SVG Version: 6.00 Build 0)  -->
<svg version="1.1" id="Capa_1" xmlns="http://www.w3.org/2000/svg" xmlns:xlink="http://www.w3.org/1999/xlink" x="0px" y="0px"
	 viewBox="0 0 480 480" style="enable-background:new 0 0 480 480;" xml:space="preserve">
<linearGradient id="SVGID_1_" gradientUnits="userSpaceOnUse" x1="-26.875" y1="552.779" x2="-26.875" y2="623.815" gradientTransform="matrix(8 0 0 -8 455 4941)">
	<stop  offset="0" style="stop-color:#006DF0"/>
	<stop  offset="1" style="stop-color:#00E7F0"/>
</linearGradient>
<path style="fill:url(#SVGID_1_);" d="M424,224h-56V56c0-2.334-1.02-4.552-2.792-6.072l-56-48C307.758,0.684,305.911,0,304,0H120
	c-4.418,0-8,3.582-8,8v216H56c-30.913,0.035-55.965,25.087-56,56v112c0,4.418,3.582,8,8,8h70.984c4.418,0,8-3.582,8-8s-3.582-8-8-8
	H16V280c0.026-22.08,17.92-39.974,40-40h368c22.08,0.026,39.974,17.92,40,40v104h-56.104c-4.418,0-8,3.582-8,8s3.582,8,8,8H472
	c4.418,0,8-3.582,8-8V280C479.965,249.087,454.913,224.035,424,224z M128,224V16h173.04L352,59.68V224H128z"/>
<linearGradient id="SVGID_2_" gradientUnits="userSpaceOnUse" x1="-26.3749" y1="552.779" x2="-26.3749" y2="623.815" gradientTransform="matrix(8 0 0 -8 455 4941)">
	<stop  offset="0" style="stop-color:#006DF0"/>
	<stop  offset="1" style="stop-color:#00E7F0"/>
</linearGradient>
<path style="fill:url(#SVGID_2_);" d="M400,480H88c-4.418-0.001-7.999-3.584-7.998-8.002c0-0.652,0.08-1.301,0.238-1.934l32-128
	c0.889-3.563,4.088-6.063,7.76-6.064h248c3.672,0.001,6.871,2.501,7.76,6.064l32,128c1.069,4.287-1.539,8.629-5.826,9.698
	C401.301,479.92,400.652,480,400,480z M98.248,464h291.504l-28-112H126.248L98.248,464z"/>
<g>
	
		<linearGradient id="SVGID_3_" gradientUnits="userSpaceOnUse" x1="-26.875" y1="552.779" x2="-26.875" y2="623.815" gradientTransform="matrix(8 0 0 -8 455 4941)">
		<stop  offset="0" style="stop-color:#006DF0"/>
		<stop  offset="1" style="stop-color:#00E7F0"/>
	</linearGradient>
	<path style="fill:url(#SVGID_3_);" d="M336,424H144c-4.418,0-8-3.582-8-8s3.582-8,8-8h192c4.418,0,8,3.582,8,8S340.418,424,336,424
		z"/>
	
		<linearGradient id="SVGID_4_" gradientUnits="userSpaceOnUse" x1="-26.875" y1="552.779" x2="-26.875" y2="623.815" gradientTransform="matrix(8 0 0 -8 455 4941)">
		<stop  offset="0" style="stop-color:#006DF0"/>
		<stop  offset="1" style="stop-color:#00E7F0"/>
	</linearGradient>
	<path style="fill:url(#SVGID_4_);" d="M336,448H144c-4.418,0-8-3.582-8-8s3.582-8,8-8h192c4.418,0,8,3.582,8,8S340.418,448,336,448
		z"/>
	
		<linearGradient id="SVGID_5_" gradientUnits="userSpaceOnUse" x1="-26.875" y1="552.779" x2="-26.875" y2="623.815" gradientTransform="matrix(8 0 0 -8 455 4941)">
		<stop  offset="0" style="stop-color:#006DF0"/>
		<stop  offset="1" style="stop-color:#00E7F0"/>
	</linearGradient>
	<path style="fill:url(#SVGID_5_);" d="M384,320H96c-4.418,0-8-3.582-8-8s3.582-8,8-8h288c4.418,0,8,3.582,8,8S388.418,320,384,320z
		"/>
</g>
<g>
</g>
<g>
</g>
<g>
</g>
<g>
</g>
<g>
</g>
<g>
</g>
<g>
</g>
<g>
</g>
<g>
</g>
<g>
</g>
<g>
</g>
<g>
</g>
<g>
</g>
<g>
</g>
<g>
</g>
</svg>
